<svg width="256" height="256" viewBox="0 0 256 256" fill="none" xmlns="http://www.w3.org/2000/svg">
<g clip-path="url(#clip0_338_5)">
<path d="M220 0H36C16.1177 0 0 16.1177 0 36V220C0 239.882 16.1177 256 36 256H220C239.882 256 256 239.882 256 220V36C256 16.1177 239.882 0 220 0Z" fill="#546D5C"/>
<path d="M56.3227 230V164.3H67.5727V219.56H95.4727V230H56.3227ZM107.858 230V219.74H125.138V190.67H110.108V180.5H135.938V219.74H151.238V230H107.858ZM129.638 172.22C127.358 172.22 125.558 171.65 124.238 170.51C122.918 169.31 122.258 167.72 122.258 165.74C122.258 163.76 122.918 162.2 124.238 161.06C125.558 159.86 127.358 159.26 129.638 159.26C131.918 159.26 133.718 159.86 135.038 161.06C136.358 162.2 137.018 163.76 137.018 165.74C137.018 167.72 136.358 169.31 135.038 170.51C133.718 171.65 131.918 172.22 129.638 172.22ZM186.212 230.9C182.132 230.9 178.892 229.76 176.492 227.48C174.092 225.14 172.892 221.96 172.892 217.94L175.412 220.55H172.892V230H161.912V164.3H173.162V178.16L172.802 189.95H175.412L172.892 192.56C172.892 188.54 174.092 185.39 176.492 183.11C178.892 180.77 182.132 179.6 186.212 179.6C191.192 179.6 195.182 181.31 198.182 184.73C201.182 188.15 202.682 192.77 202.682 198.59V212C202.682 217.76 201.182 222.35 198.182 225.77C195.182 229.19 191.192 230.9 186.212 230.9ZM182.252 221.18C185.132 221.18 187.382 220.34 189.002 218.66C190.622 216.98 191.432 214.58 191.432 211.46V199.04C191.432 195.92 190.622 193.52 189.002 191.84C187.382 190.16 185.132 189.32 182.252 189.32C179.432 189.32 177.212 190.19 175.592 191.93C173.972 193.61 173.162 195.98 173.162 199.04V211.46C173.162 214.52 173.972 216.92 175.592 218.66C177.212 220.34 179.432 221.18 182.252 221.18Z" fill="#92FFC1"/>
<rect x="30.1322" y="29.9195" width="194.736" height="117.181" stroke="#92FFC1" stroke-width="2.26437" stroke-dasharray="12.45 12.45"/>
<path d="M49.1884 121.787L65.8541 55.6678H80.4366L97.193 121.787H85.5994L81.9764 105.756H64.4049L60.7819 121.787H49.1884ZM66.4881 96.517H79.8932L75.9079 78.7644C75.2437 75.8056 74.6701 73.1487 74.187 70.7938C73.7039 68.3785 73.3718 66.6273 73.1907 65.5405C73.0095 66.6273 72.6774 68.3785 72.1943 70.7938C71.7717 73.1487 71.198 75.7754 70.4734 78.6738L66.4881 96.517ZM107.302 121.787V71.9713H118.352V81.4816H121.432L118.352 84.1083C118.352 80.0022 119.53 76.8019 121.884 74.5074C124.3 72.2128 127.591 71.0655 131.757 71.0655C136.648 71.0655 140.543 72.6959 143.441 75.9565C146.4 79.2172 147.879 83.595 147.879 89.0899V121.787H136.558V90.2674C136.558 87.2482 135.773 84.9234 134.203 83.2931C132.633 81.6628 130.429 80.8476 127.591 80.8476C124.813 80.8476 122.609 81.6929 120.979 83.3837C119.409 85.0744 118.624 87.4897 118.624 90.6297V121.787H107.302ZM161.521 121.787V111.462H178.911V82.2062H163.785V71.9713H189.78V111.462H205.178V121.787H161.521ZM183.44 63.6384C181.145 63.6384 179.334 63.0647 178.005 61.9175C176.677 60.7098 176.013 59.1096 176.013 57.117C176.013 55.1244 176.677 53.5544 178.005 52.4071C179.334 51.1995 181.145 50.5956 183.44 50.5956C185.734 50.5956 187.546 51.1995 188.874 52.4071C190.203 53.5544 190.867 55.1244 190.867 57.117C190.867 59.1096 190.203 60.7098 188.874 61.9175C187.546 63.0647 185.734 63.6384 183.44 63.6384Z" fill="#92FFC1"/>
<rect x="142.219" y="17.4655" width="67.931" height="24.908" rx="12.454" fill="#92FFC1"/>
<path d="M152.34 35.9195V23.5051H159.642V24.8977H153.834V29.0245H159.201V30.4171H153.868V35.9195H152.34ZM167.278 35.9195C166.735 35.9195 166.259 35.812 165.852 35.5969C165.444 35.3817 165.127 35.076 164.901 34.6798C164.674 34.2835 164.561 33.8193 164.561 33.2872V24.9147H161.419V23.5221H166.089V33.2872C166.089 33.6721 166.197 33.9778 166.412 34.2043C166.627 34.4194 166.916 34.5269 167.278 34.5269H170.25V35.9195H167.278ZM176.187 36.0554C175.44 36.0554 174.795 35.9139 174.251 35.6308C173.708 35.3478 173.283 34.9402 172.978 34.4081C172.683 33.8646 172.536 33.2249 172.536 32.489V30.0095C172.536 29.2623 172.683 28.6226 172.978 28.0905C173.283 27.5583 173.708 27.1508 174.251 26.8677C174.795 26.5847 175.44 26.4431 176.187 26.4431C176.935 26.4431 177.58 26.5847 178.123 26.8677C178.667 27.1508 179.086 27.5583 179.38 28.0905C179.686 28.6226 179.839 29.2566 179.839 29.9925V32.489C179.839 33.2249 179.686 33.8646 179.38 34.4081C179.086 34.9402 178.667 35.3478 178.123 35.6308C177.58 35.9139 176.935 36.0554 176.187 36.0554ZM176.187 34.6968C176.855 34.6968 177.376 34.51 177.75 34.1363C178.123 33.7627 178.31 33.2136 178.31 32.489V30.0095C178.31 29.2849 178.123 28.7358 177.75 28.3622C177.376 27.9886 176.855 27.8018 176.187 27.8018C175.531 27.8018 175.01 27.9886 174.625 28.3622C174.251 28.7358 174.065 29.2849 174.065 30.0095V32.489C174.065 33.2136 174.251 33.7627 174.625 34.1363C175.01 34.51 175.531 34.6968 176.187 34.6968ZM185.555 36.0894C184.57 36.0894 183.795 35.8403 183.229 35.3421C182.663 34.8326 182.379 34.1477 182.379 33.2872C182.379 32.4154 182.663 31.7304 183.229 31.2323C183.795 30.7341 184.559 30.485 185.521 30.485H188.408V29.551C188.408 28.9736 188.233 28.532 187.882 28.2263C187.542 27.9093 187.055 27.7508 186.421 27.7508C185.867 27.7508 185.402 27.8697 185.029 28.1075C184.655 28.3339 184.44 28.6452 184.383 29.0415H182.855C182.957 28.2377 183.336 27.598 183.993 27.1225C184.65 26.6469 185.47 26.4092 186.455 26.4092C187.531 26.4092 188.38 26.6866 189.003 27.2413C189.625 27.7961 189.937 28.549 189.937 29.5V35.9195H188.442V34.1363H188.188L188.442 33.8816C188.442 34.5609 188.176 35.0987 187.644 35.495C187.123 35.8912 186.427 36.0894 185.555 36.0894ZM185.929 34.8836C186.653 34.8836 187.248 34.7024 187.712 34.3401C188.176 33.9778 188.408 33.5136 188.408 32.9475V31.6229H185.555C185.046 31.6229 184.644 31.7644 184.349 32.0475C184.055 32.3305 183.908 32.7154 183.908 33.2023C183.908 33.7231 184.083 34.1363 184.434 34.442C184.797 34.7364 185.295 34.8836 185.929 34.8836ZM197.572 35.9195C196.769 35.9195 196.14 35.7044 195.687 35.2742C195.246 34.844 195.025 34.2382 195.025 33.457V27.9716H192.393V26.579H195.025V23.9467H196.553V26.579H200.29V27.9716H196.553V33.457C196.553 34.1703 196.893 34.5269 197.572 34.5269H200.12V35.9195H197.572Z" fill="#546D5C"/>
</g>
<defs>
<clipPath id="clip0_338_5">
<rect width="256" height="256" fill="white"/>
</clipPath>
</defs>
</svg>
