<svg width="32" height="32" viewBox="0 0 32 32" fill="none" xmlns="http://www.w3.org/2000/svg">
<g clip-path="url(#clip0_638_2)">
<path d="M27.5 0H4.5C2.01472 0 0 2.01472 0 4.5V27.5C0 29.9853 2.01472 32 4.5 32H27.5C29.9853 32 32 29.9853 32 27.5V4.5C32 2.01472 29.9853 0 27.5 0Z" fill="black"/>
<mask id="path-2-outside-1_638_2" maskUnits="userSpaceOnUse" x="6.3291" y="18.4297" width="20" height="11" fill="black">
<rect fill="white" x="6.3291" y="18.4297" width="20" height="11"/>
<path d="M6.55189 28.4297V19.9262H8.00798V27.0785H11.6191V28.4297H6.55189ZM13.2221 28.4297V27.1018H15.4586V23.3393H13.5133V22.0229H16.8565V27.1018H18.8368V28.4297H13.2221ZM16.0411 20.9513C15.746 20.9513 15.513 20.8775 15.3421 20.7299C15.1713 20.5746 15.0859 20.3688 15.0859 20.1126C15.0859 19.8563 15.1713 19.6544 15.3421 19.5068C15.513 19.3515 15.746 19.2738 16.0411 19.2738C16.3362 19.2738 16.5691 19.3515 16.74 19.5068C16.9108 19.6544 16.9963 19.8563 16.9963 20.1126C16.9963 20.3688 16.9108 20.5746 16.74 20.7299C16.5691 20.8775 16.3362 20.9513 16.0411 20.9513ZM23.3636 28.5462C22.8355 28.5462 22.4161 28.3987 22.1055 28.1036C21.7949 27.8007 21.6395 27.3891 21.6395 26.8688L21.9657 27.2066H21.6395V28.4297H20.2184V19.9262H21.6745V21.7201L21.6279 23.2461H21.9657L21.6395 23.5839C21.6395 23.0636 21.7949 22.6559 22.1055 22.3608C22.4161 22.0579 22.8355 21.9065 23.3636 21.9065C24.0081 21.9065 24.5245 22.1278 24.9128 22.5704C25.3011 23.0131 25.4953 23.6111 25.4953 24.3643V26.1C25.4953 26.8455 25.3011 27.4396 24.9128 27.8823C24.5245 28.3249 24.0081 28.5462 23.3636 28.5462ZM22.851 27.2882C23.2238 27.2882 23.515 27.1795 23.7247 26.962C23.9343 26.7446 24.0392 26.4339 24.0392 26.0301V24.4226C24.0392 24.0188 23.9343 23.7081 23.7247 23.4907C23.515 23.2732 23.2238 23.1645 22.851 23.1645C22.486 23.1645 22.1987 23.2771 21.989 23.5023C21.7793 23.7198 21.6745 24.0265 21.6745 24.4226V26.0301C21.6745 26.4262 21.7793 26.7368 21.989 26.962C22.1987 27.1795 22.486 27.2882 22.851 27.2882Z"/>
</mask>
<path d="M6.55189 28.4297V19.9262H8.00798V27.0785H11.6191V28.4297H6.55189ZM13.2221 28.4297V27.1018H15.4586V23.3393H13.5133V22.0229H16.8565V27.1018H18.8368V28.4297H13.2221ZM16.0411 20.9513C15.746 20.9513 15.513 20.8775 15.3421 20.7299C15.1713 20.5746 15.0859 20.3688 15.0859 20.1126C15.0859 19.8563 15.1713 19.6544 15.3421 19.5068C15.513 19.3515 15.746 19.2738 16.0411 19.2738C16.3362 19.2738 16.5691 19.3515 16.74 19.5068C16.9108 19.6544 16.9963 19.8563 16.9963 20.1126C16.9963 20.3688 16.9108 20.5746 16.74 20.7299C16.5691 20.8775 16.3362 20.9513 16.0411 20.9513ZM23.3636 28.5462C22.8355 28.5462 22.4161 28.3987 22.1055 28.1036C21.7949 27.8007 21.6395 27.3891 21.6395 26.8688L21.9657 27.2066H21.6395V28.4297H20.2184V19.9262H21.6745V21.7201L21.6279 23.2461H21.9657L21.6395 23.5839C21.6395 23.0636 21.7949 22.6559 22.1055 22.3608C22.4161 22.0579 22.8355 21.9065 23.3636 21.9065C24.0081 21.9065 24.5245 22.1278 24.9128 22.5704C25.3011 23.0131 25.4953 23.6111 25.4953 24.3643V26.1C25.4953 26.8455 25.3011 27.4396 24.9128 27.8823C24.5245 28.3249 24.0081 28.5462 23.3636 28.5462ZM22.851 27.2882C23.2238 27.2882 23.515 27.1795 23.7247 26.962C23.9343 26.7446 24.0392 26.4339 24.0392 26.0301V24.4226C24.0392 24.0188 23.9343 23.7081 23.7247 23.4907C23.515 23.2732 23.2238 23.1645 22.851 23.1645C22.486 23.1645 22.1987 23.2771 21.989 23.5023C21.7793 23.7198 21.6745 24.0265 21.6745 24.4226V26.0301C21.6745 26.4262 21.7793 26.7368 21.989 26.962C22.1987 27.1795 22.486 27.2882 22.851 27.2882Z" fill="white"/>
<path d="M6.55189 28.4297H6.42246V28.5592H6.55189V28.4297ZM6.55189 19.9262V19.7967H6.42246V19.9262H6.55189ZM8.00798 19.9262H8.13741V19.7967H8.00798V19.9262ZM8.00798 27.0785H7.87855V27.2079H8.00798V27.0785ZM11.6191 27.0785H11.7485V26.9491H11.6191V27.0785ZM11.6191 28.4297V28.5592H11.7485V28.4297H11.6191ZM6.55189 28.4297H6.68132V19.9262H6.55189H6.42246V28.4297H6.55189ZM6.55189 19.9262V20.0556H8.00798V19.9262V19.7967H6.55189V19.9262ZM8.00798 19.9262H7.87855V27.0785H8.00798H8.13741V19.9262H8.00798ZM8.00798 27.0785V27.2079H11.6191V27.0785V26.9491H8.00798V27.0785ZM11.6191 27.0785H11.4897V28.4297H11.6191H11.7485V27.0785H11.6191ZM11.6191 28.4297V28.3003H6.55189V28.4297V28.5592H11.6191V28.4297ZM13.2221 28.4297H13.0926V28.5592H13.2221V28.4297ZM13.2221 27.1018V26.9724H13.0926V27.1018H13.2221ZM15.4586 27.1018V27.2312H15.588V27.1018H15.4586ZM15.4586 23.3393H15.588V23.2098H15.4586V23.3393ZM13.5133 23.3393H13.3838V23.4687H13.5133V23.3393ZM13.5133 22.0229V21.8935H13.3838V22.0229H13.5133ZM16.8565 22.0229H16.9859V21.8935H16.8565V22.0229ZM16.8565 27.1018H16.727V27.2312H16.8565V27.1018ZM18.8368 27.1018H18.9662V26.9724H18.8368V27.1018ZM18.8368 28.4297V28.5592H18.9662V28.4297H18.8368ZM15.3421 20.7299L15.255 20.8257L15.2575 20.8279L15.3421 20.7299ZM15.3421 19.5068L15.4268 19.6048L15.4292 19.6026L15.3421 19.5068ZM16.74 19.5068L16.6529 19.6026L16.6554 19.6048L16.74 19.5068ZM16.74 20.7299L16.8246 20.8279L16.827 20.8257L16.74 20.7299ZM13.2221 28.4297H13.3515V27.1018H13.2221H13.0926V28.4297H13.2221ZM13.2221 27.1018V27.2312H15.4586V27.1018V26.9724H13.2221V27.1018ZM15.4586 27.1018H15.588V23.3393H15.4586H15.3292V27.1018H15.4586ZM15.4586 23.3393V23.2098H13.5133V23.3393V23.4687H15.4586V23.3393ZM13.5133 23.3393H13.6427V22.0229H13.5133H13.3838V23.3393H13.5133ZM13.5133 22.0229V22.1524H16.8565V22.0229V21.8935H13.5133V22.0229ZM16.8565 22.0229H16.727V27.1018H16.8565H16.9859V22.0229H16.8565ZM16.8565 27.1018V27.2312H18.8368V27.1018V26.9724H16.8565V27.1018ZM18.8368 27.1018H18.7073V28.4297H18.8368H18.9662V27.1018H18.8368ZM18.8368 28.4297V28.3003H13.2221V28.4297V28.5592H18.8368V28.4297ZM16.0411 20.9513V20.8218C15.7673 20.8218 15.5676 20.7537 15.4267 20.632L15.3421 20.7299L15.2575 20.8279C15.4583 21.0013 15.7246 21.0807 16.0411 21.0807V20.9513ZM15.3421 20.7299L15.4292 20.6342C15.2885 20.5062 15.2153 20.3368 15.2153 20.1126H15.0859H14.9564C14.9564 20.4008 15.0541 20.643 15.2551 20.8257L15.3421 20.7299ZM15.0859 20.1126H15.2153C15.2153 19.8882 15.2884 19.7243 15.4267 19.6048L15.3421 19.5068L15.2575 19.4089C15.0542 19.5845 14.9564 19.8243 14.9564 20.1126H15.0859ZM15.3421 19.5068L15.4292 19.6026C15.5702 19.4744 15.7689 19.4033 16.0411 19.4033V19.2738V19.1444C15.723 19.1444 15.4558 19.2286 15.2551 19.411L15.3421 19.5068ZM16.0411 19.2738V19.4033C16.3132 19.4033 16.512 19.4744 16.6529 19.6026L16.74 19.5068L16.827 19.411C16.6263 19.2286 16.3591 19.1444 16.0411 19.1444V19.2738ZM16.74 19.5068L16.6554 19.6048C16.7937 19.7243 16.8668 19.8882 16.8668 20.1126H16.9963H17.1257C17.1257 19.8243 17.0279 19.5845 16.8246 19.4089L16.74 19.5068ZM16.9963 20.1126H16.8668C16.8668 20.3368 16.7936 20.5062 16.6529 20.6342L16.74 20.7299L16.827 20.8257C17.028 20.643 17.1257 20.4008 17.1257 20.1126H16.9963ZM16.74 20.7299L16.6554 20.632C16.5145 20.7537 16.3148 20.8218 16.0411 20.8218V20.9513V21.0807C16.3575 21.0807 16.6238 21.0013 16.8246 20.8279L16.74 20.7299ZM22.1055 28.1036L22.0151 28.1963L22.0163 28.1974L22.1055 28.1036ZM21.6395 26.8688L21.7327 26.7789L21.5101 26.5484V26.8688H21.6395ZM21.9657 27.2066V27.3361H22.2706L22.0588 27.1167L21.9657 27.2066ZM21.6395 27.2066V27.0772H21.5101V27.2066H21.6395ZM21.6395 28.4297V28.5592H21.769V28.4297H21.6395ZM20.2184 28.4297H20.089V28.5592H20.2184V28.4297ZM20.2184 19.9262V19.7967H20.089V19.9262H20.2184ZM21.6745 19.9262H21.8039V19.7967H21.6745V19.9262ZM21.6745 21.7201L21.8039 21.724V21.7201H21.6745ZM21.6279 23.2461L21.4985 23.2421L21.4945 23.3755H21.6279V23.2461ZM21.9657 23.2461L22.0588 23.336L22.2706 23.1166H21.9657V23.2461ZM21.6395 23.5839H21.5101V23.9043L21.7327 23.6738L21.6395 23.5839ZM22.1055 22.3608L22.1946 22.4546L22.1959 22.4534L22.1055 22.3608ZM24.9128 22.5704L25.0101 22.4851V22.4851L24.9128 22.5704ZM24.9128 27.8823L24.8155 27.7969L24.9128 27.8823ZM23.7247 26.962L23.8178 27.0519V27.0519L23.7247 26.962ZM21.989 23.5023L22.0822 23.5922L22.0837 23.5905L21.989 23.5023ZM21.989 26.962L21.8943 27.0502L21.8958 27.0519L21.989 26.962ZM23.3636 28.5462V28.4168C22.8605 28.4168 22.4759 28.277 22.1946 28.0097L22.1055 28.1036L22.0163 28.1974C22.3563 28.5204 22.8104 28.6757 23.3636 28.6757V28.5462ZM22.1055 28.1036L22.1959 28.0109C21.9151 27.7372 21.769 27.3617 21.769 26.8688H21.6395H21.5101C21.5101 27.4165 21.6746 27.8643 22.0151 28.1963L22.1055 28.1036ZM21.6395 26.8688L21.5464 26.9587L21.8726 27.2965L21.9657 27.2066L22.0588 27.1167L21.7327 26.7789L21.6395 26.8688ZM21.9657 27.2066V27.0772H21.6395V27.2066V27.3361H21.9657V27.2066ZM21.6395 27.2066H21.5101V28.4297H21.6395H21.769V27.2066H21.6395ZM21.6395 28.4297V28.3003H20.2184V28.4297V28.5592H21.6395V28.4297ZM20.2184 28.4297H20.3478V19.9262H20.2184H20.089V28.4297H20.2184ZM20.2184 19.9262V20.0556H21.6745V19.9262V19.7967H20.2184V19.9262ZM21.6745 19.9262H21.5451V21.7201H21.6745H21.8039V19.9262H21.6745ZM21.6745 21.7201L21.5451 21.7161L21.4985 23.2421L21.6279 23.2461L21.7573 23.25L21.8039 21.724L21.6745 21.7201ZM21.6279 23.2461V23.3755H21.9657V23.2461V23.1166H21.6279V23.2461ZM21.9657 23.2461L21.8726 23.1562L21.5464 23.494L21.6395 23.5839L21.7327 23.6738L22.0588 23.336L21.9657 23.2461ZM21.6395 23.5839H21.769C21.769 23.0909 21.9151 22.7201 22.1946 22.4546L22.1055 22.3608L22.0163 22.2669C21.6746 22.5916 21.5101 23.0363 21.5101 23.5839H21.6395ZM22.1055 22.3608L22.1959 22.4534C22.4773 22.1791 22.8615 22.0359 23.3636 22.0359V21.9065V21.777C22.8095 21.777 22.355 21.9367 22.0151 22.2681L22.1055 22.3608ZM23.3636 21.9065V22.0359C23.9748 22.0359 24.4543 22.244 24.8155 22.6558L24.9128 22.5704L25.0101 22.4851C24.5948 22.0116 24.0414 21.777 23.3636 21.777V21.9065ZM24.9128 22.5704L24.8155 22.6558C25.1779 23.0688 25.3658 23.6334 25.3658 24.3643H25.4953H25.6247C25.6247 23.5887 25.4244 22.9573 25.0101 22.4851L24.9128 22.5704ZM25.4953 24.3643H25.3658V26.1H25.4953H25.6247V24.3643H25.4953ZM25.4953 26.1H25.3658C25.3658 26.8227 25.1781 27.3836 24.8155 27.7969L24.9128 27.8823L25.0101 27.9676C25.4242 27.4956 25.6247 26.8683 25.6247 26.1H25.4953ZM24.9128 27.8823L24.8155 27.7969C24.4543 28.2087 23.9748 28.4168 23.3636 28.4168V28.5462V28.6757C24.0414 28.6757 24.5948 28.4411 25.0101 27.9676L24.9128 27.8823ZM22.851 27.2882V27.4176C23.2501 27.4176 23.5783 27.3003 23.8178 27.0519L23.7247 26.962L23.6315 26.8722C23.4517 27.0586 23.1974 27.1587 22.851 27.1587V27.2882ZM23.7247 26.962L23.8178 27.0519C24.0577 26.8031 24.1686 26.4559 24.1686 26.0301H24.0392H23.9098C23.9098 26.412 23.811 26.6861 23.6315 26.8722L23.7247 26.962ZM24.0392 26.0301H24.1686V24.4226H24.0392H23.9098V26.0301H24.0392ZM24.0392 24.4226H24.1686C24.1686 23.9968 24.0577 23.6496 23.8178 23.4008L23.7247 23.4907L23.6315 23.5805C23.811 23.7666 23.9098 24.0407 23.9098 24.4226H24.0392ZM23.7247 23.4907L23.8178 23.4008C23.5783 23.1524 23.2501 23.0351 22.851 23.0351V23.1645V23.294C23.1974 23.294 23.4517 23.3941 23.6315 23.5805L23.7247 23.4907ZM22.851 23.1645V23.0351C22.4574 23.0351 22.133 23.1577 21.8943 23.4141L21.989 23.5023L22.0837 23.5905C22.2644 23.3965 22.5147 23.294 22.851 23.294V23.1645ZM21.989 23.5023L21.8958 23.4125C21.6564 23.6608 21.5451 24.0038 21.5451 24.4226H21.6745H21.8039C21.8039 24.0493 21.9023 23.7787 22.0822 23.5922L21.989 23.5023ZM21.6745 24.4226H21.5451V26.0301H21.6745H21.8039V24.4226H21.6745ZM21.6745 26.0301H21.5451C21.5451 26.4492 21.6565 26.7948 21.8943 27.0502L21.989 26.962L22.0837 26.8738C21.9022 26.6788 21.8039 26.4032 21.8039 26.0301H21.6745ZM21.989 26.962L21.8958 27.0519C22.1349 27.2997 22.4587 27.4176 22.851 27.4176V27.2882V27.1587C22.5133 27.1587 22.2625 27.0592 22.0822 26.8722L21.989 26.962Z" fill="white" mask="url(#path-2-outside-1_638_2)"/>
<rect x="3.375" y="2.375" width="24.7478" height="14.7099" stroke="white" stroke-width="0.75" stroke-dasharray="1.61 1.61"/>
<path d="M6.06461 14L8.22167 5.44212H10.1091L12.2779 14H10.7773L10.3084 11.925H8.0341L7.56517 14H6.06461ZM8.30373 10.7292H10.0388L9.52293 8.43152C9.43696 8.04856 9.36272 7.70468 9.30019 7.39988C9.23767 7.08727 9.19469 6.86062 9.17124 6.71994C9.14779 6.86062 9.10481 7.08727 9.04229 7.39988C8.98758 7.70468 8.91333 8.04465 8.81955 8.41979L8.30373 10.7292ZM13.5863 14V7.55228H15.0165V8.78321H15.4151L15.0165 9.12318C15.0165 8.59173 15.1689 8.17752 15.4737 7.88053C15.7863 7.58355 16.2123 7.43505 16.7515 7.43505C17.3846 7.43505 17.8887 7.64607 18.2638 8.0681C18.6468 8.49013 18.8382 9.05675 18.8382 9.76795V14H17.3728V9.92035C17.3728 9.52958 17.2712 9.22869 17.068 9.01767C16.8648 8.80666 16.5796 8.70115 16.2123 8.70115C15.8527 8.70115 15.5675 8.81057 15.3565 9.0294C15.1533 9.24823 15.0517 9.56085 15.0517 9.96725V14H13.5863ZM20.6038 14V12.6636H22.8547V8.877H20.8969V7.55228H24.2615V12.6636H26.2544V14H20.6038ZM23.4408 6.47376C23.1439 6.47376 22.9094 6.39951 22.7375 6.25102C22.5655 6.09471 22.4795 5.8876 22.4795 5.62969C22.4795 5.37178 22.5655 5.16858 22.7375 5.02009C22.9094 4.86378 23.1439 4.78563 23.4408 4.78563C23.7378 4.78563 23.9723 4.86378 24.1442 5.02009C24.3162 5.16858 24.4021 5.37178 24.4021 5.62969C24.4021 5.8876 24.3162 6.09471 24.1442 6.25102C23.9723 6.39951 23.7378 6.47376 23.4408 6.47376Z" fill="white"/>
</g>
<defs>
<clipPath id="clip0_638_2">
<rect width="32" height="32" fill="white"/>
</clipPath>
</defs>
</svg>
